<svg xmlns="http://www.w3.org/2000/svg" width="320" height="106.45" viewBox="0 0 320 106.45"><g transform="translate(0 475.743)"><path d="M301.628-470.14H318.81a2.8,2.8,0,0,0,2.8-2.8,2.8,2.8,0,0,0-2.8-2.8H301.628a2.8,2.8,0,0,0-2.8,2.8,2.8,2.8,0,0,0,2.8,2.8" transform="translate(-231.963)" fill="#e5e5e5"/><path d="M267.435-25.039H249.88a2.8,2.8,0,0,0-2.8,2.8,2.8,2.8,0,0,0,2.8,2.8h17.555a2.8,2.8,0,0,0,2.8-2.8,2.8,2.8,0,0,0-2.8-2.8" transform="translate(-191.794 -349.856)" fill="#e5e5e5"/><path d="M377.5-425.665H348.367a2.8,2.8,0,0,0-2.8,2.8,2.8,2.8,0,0,0,2.8,2.8H377.5a2.8,2.8,0,0,0,2.8-2.8,2.8,2.8,0,0,0-2.8-2.8" transform="translate(-268.244 -38.873)" fill="#e5e5e5"/><path d="M372.821-375.586H350.037a2.8,2.8,0,0,0-2.8,2.8,2.8,2.8,0,0,0,2.8,2.8h22.784a2.8,2.8,0,0,0,2.8-2.8,2.8,2.8,0,0,0-2.8-2.8" transform="translate(-269.54 -77.746)" fill="#e5e5e5"/><path d="M299.373-75.117H276.589a2.8,2.8,0,0,0-2.8,2.8,2.8,2.8,0,0,0,2.8,2.8h22.784a2.8,2.8,0,0,0,2.8-2.8,2.8,2.8,0,0,0-2.8-2.8" transform="translate(-212.526 -310.983)" fill="#e5e5e5"/><path d="M616.459-343.518a21.791,21.791,0,0,1-3.792,7.189,16.5,16.5,0,0,1-5.735,4.5,16.859,16.859,0,0,1-7.3,1.577c-5.243,0-9.156-2.086-11.745-6.416l-.094,5.271H576.9v-57.894H588.1v20.916h.056a14.634,14.634,0,0,1,12.3-6.35h.092a15.824,15.824,0,0,1,7.214,1.5,15.544,15.544,0,0,1,5.455,4.439,20.846,20.846,0,0,1,3.421,6.882,30.838,30.838,0,0,1,1.2,8.843,30.727,30.727,0,0,1-1.387,9.54m-44.619,0a21.782,21.782,0,0,1-3.79,7.189,16.5,16.5,0,0,1-5.735,4.5,16.86,16.86,0,0,1-7.3,1.577c-5.243,0-9.156-2.086-11.745-6.416l-.094,5.271H532.078v-57.894h11.206v20.916h.26a14.631,14.631,0,0,1,12.3-6.35h.092a15.824,15.824,0,0,1,7.214,1.5,15.542,15.542,0,0,1,5.455,4.439,20.85,20.85,0,0,1,3.421,6.882,30.841,30.841,0,0,1,1.2,8.843,30.664,30.664,0,0,1-1.387,9.54m-66.619-16.3a3.713,3.713,0,0,1,1.24-2.358,4.135,4.135,0,0,1,2.855-.934,6.913,6.913,0,0,1,3.378.817c.478.259.528.424.533.682a1.709,1.709,0,0,1-.2.121,12.593,12.593,0,0,1-4.15,1.13q-1.879.251-3.659.542M527.969-331.4H517.478c-.125-.747-.247-1.1-.371-1.654a15.1,15.1,0,0,1-.279-1.894,12.547,12.547,0,0,1-5.288,3.182,24.119,24.119,0,0,1-7.513,1.057q-6.4,0-10.25-3.159a10.659,10.659,0,0,1-3.85-8.722,14.374,14.374,0,0,1,1.438-6.958,10.454,10.454,0,0,1,4.035-4.082,21.014,21.014,0,0,1,6.169-2.226q3.57-.742,7.746-1.3a15.859,15.859,0,0,0,5.241-1.484,3.153,3.153,0,0,0,1.9-2.875,3.884,3.884,0,0,0-2.227-3.617,10.163,10.163,0,0,0-4.917-1.206,7.428,7.428,0,0,0-4.963,1.838,7.409,7.409,0,0,0-2.365,4.714H491.319c.371-4.855,1.979-8.486,4.824-11.115s7.421-4,13.729-4c6,0,10.547,1.394,13.547,4.237s4.55,6.958,4.55,12.4Zm-38.1-25.82c.373.272.884.795,1.448.795h3.147a1.077,1.077,0,0,0-.6.176c-1.609.92-3.251,1.916-4,3.338ZM486.51-331.4H475.3v-25.756c0-3.277-.512-5.487-1.594-6.632s-2.834-1.716-5.493-1.716c-5.813,0-8.6,3.246-8.6,9.74V-331.4H448.038V-373.6H458.87v5.968a12.821,12.821,0,0,1,5.26-5.427,16.609,16.609,0,0,1,8.386-1.9,16.286,16.286,0,0,1,5.6.928,12.512,12.512,0,0,1,4.4,2.69,12.4,12.4,0,0,1,2.921,4.406,16.19,16.19,0,0,1,1.073,6.076Zm-56.419-29.53c-1.018-.24-2.139-.5-3.374-.771l-.059-.013a18.459,18.459,0,0,1-3.688-1.059,6.11,6.11,0,0,1,2.861-.612c3.5,0,4.061,1.366,4.26,2.456m-8.653,15.495c1.522.4,3.339.845,5.514,1.352l.05.012a13.985,13.985,0,0,1,3.736,1.229c-.035.021-.073.043-.113.065a7.981,7.981,0,0,1-3.866.851,7.177,7.177,0,0,1-4.291-1.081,2.315,2.315,0,0,1-1.012-2.089,3.256,3.256,0,0,0-.017-.338m19,11.378q-5.148,3.8-13.589,3.8a27.937,27.937,0,0,1-7.838-1.067,20.45,20.45,0,0,1-6.354-3.015,14.571,14.571,0,0,1-4.267-4.559,12.131,12.131,0,0,1-1.67-5.951h11.5a5.428,5.428,0,0,0,2.319,4.559,10.2,10.2,0,0,0,6.215,1.654,11.094,11.094,0,0,0,5.426-1.283,3.692,3.692,0,0,0,2.273-3.216c0-.743-.557-1.491-1.67-2.234a15.349,15.349,0,0,0-5.1-1.858q-9.926-2.318-12.616-3.62Q408.3-354,408.3-360.864a13.523,13.523,0,0,1,1.113-5.38,13.013,13.013,0,0,1,3.339-4.592,16.687,16.687,0,0,1,5.612-3.2,23.967,23.967,0,0,1,8.024-1.207,23.123,23.123,0,0,1,6.957,1.021,17.536,17.536,0,0,1,5.612,2.875,14.705,14.705,0,0,1,3.8,4.572,13.43,13.43,0,0,1,1.623,5.87H433.344c-.557-3.735-3.061-5.638-7.514-5.638a9.144,9.144,0,0,0-4.684,1.123,3.41,3.41,0,0,0-1.995,3c0,1.67,2.287,2.959,6.864,3.887q10.019,2.227,12.8,3.521,6.771,3.338,6.772,9.922,0,7.237-5.149,11.037m4.61-23.832v3.357c-1.121-1.192-2.674-1.893-4.6-3.013h3.936a1.3,1.3,0,0,0,.668-.344m174.689-4.966a24.314,24.314,0,0,0-3.958-7.961,18.874,18.874,0,0,0-6.565-5.36,19.127,19.127,0,0,0-8.664-1.912h-.092c-3.434,0-6.753.7-8.995,2.315V-389.25a3.212,3.212,0,0,0-3.4-3.03H576.937a2.9,2.9,0,0,0-3.025,3.03v22.661c-1.121-1.544-1.671-2.961-2.645-4.226a19.036,19.036,0,0,0-6.619-5.36,19.33,19.33,0,0,0-8.713-1.912h-.092a17.33,17.33,0,0,0-9.2,2.315V-389.25a3.034,3.034,0,0,0-3.193-3.03H532.32a3.065,3.065,0,0,0-3.23,3.03V-368.2a14.244,14.244,0,0,0-3.5-4.844c-3.609-3.421-8.9-5.154-15.722-5.154-7.218,0-12.426,1.57-15.922,4.8a17.553,17.553,0,0,0-4.782,7.584,16.906,16.906,0,0,0-.738-2.336,15.635,15.635,0,0,0-3.68-5.538,15.755,15.755,0,0,0-5.514-3.387,19.534,19.534,0,0,0-6.7-1.123,19.753,19.753,0,0,0-9.987,2.336c-.259.15-.512.365-.761.527a3.18,3.18,0,0,0-2.842-1.634H448.278a3.131,3.131,0,0,0-3.228,3.115v4.523a18.237,18.237,0,0,0-4.1-4.56,20.849,20.849,0,0,0-6.638-3.416,26.451,26.451,0,0,0-7.928-1.169,27.276,27.276,0,0,0-9.108,1.393,19.963,19.963,0,0,0-6.684,3.838,16.282,16.282,0,0,0-4.155,5.725,17.1,17.1,0,0,0-1.375,6.714,13.536,13.536,0,0,0,7.81,12.6h-6.155a3.177,3.177,0,0,0-2.315.918,3.165,3.165,0,0,0-.915,2.311,15.852,15.852,0,0,0,2.1,7.588,18.214,18.214,0,0,0,5.172,5.679,23.753,23.753,0,0,0,7.346,3.5,31.3,31.3,0,0,0,8.74,1.194c6.307,0,11.526-1.493,15.511-4.436a15.06,15.06,0,0,0,2.688-2.493v2.4a3.484,3.484,0,0,0,3.228,3.516H459.41a3.456,3.456,0,0,0,3.2-3.516v-24.211c0-5.42,2.117-6.509,5.506-6.509,2.471,0,3.068.589,3.181.707,0,0,.651.824.651,4.41v25.6a3.653,3.653,0,0,0,3.422,3.516H486.5a3.611,3.611,0,0,0,3.375-3.516v-1.829a7.509,7.509,0,0,0,1.931,2.01c3.144,2.578,7.246,3.886,12.261,3.886a27.32,27.32,0,0,0,8.5-1.228,17.968,17.968,0,0,0,2.308-.794,3.355,3.355,0,0,0,2.6,1.47h10.39a3.215,3.215,0,0,0,2.226-.893,3.221,3.221,0,0,0,2.227.893h10.852a3.357,3.357,0,0,0,2.553-1.394,16.866,16.866,0,0,0,9.286,2.479,20.171,20.171,0,0,0,8.686-1.922,20.207,20.207,0,0,0,6.95-5.384,38.749,38.749,0,0,0,3.265-5.159v7.865a3.32,3.32,0,0,0,3.025,3.516h10.852a3.365,3.365,0,0,0,2.555-1.394,16.853,16.853,0,0,0,9.284,2.479,20.171,20.171,0,0,0,8.686-1.922,19.826,19.826,0,0,0,6.847-5.384,25.077,25.077,0,0,0,4.37-8.253,34.207,34.207,0,0,0,1.546-10.558,34.371,34.371,0,0,0-1.338-9.785" transform="translate(-313.207 -64.788)" fill="#7f7f7f"/><path d="M851.606-206.362a5.432,5.432,0,0,1-1.484,1.939,6.821,6.821,0,0,1-2.375,1.224,11.015,11.015,0,0,1-3.194.465,2.64,2.64,0,0,1-1.538-.3,1.979,1.979,0,0,1-.24-1.2,1.782,1.782,0,0,1,.748-1.636c.436-.327,1.935-1.179,6.467-2.056l.021,0q1.138-.228,2.128-.5a6.106,6.106,0,0,1-.532,2.067m3.614-6.963q-1.67,1.392-5.844,2.226-5.752,1.114-7.792,2.644a4.985,4.985,0,0,0-2.041,4.221q0,4.731,5.009,4.731a14.178,14.178,0,0,0,4.128-.6,10.056,10.056,0,0,0,3.478-1.809,8.666,8.666,0,0,0,2.366-3.061,9.834,9.834,0,0,0,.881-4.267q0-.741-.046-2.041t-.14-2.041" transform="translate(-651.691 -203.7)" fill="#7f7f7f"/><path d="M1040.591-251.822a4.972,4.972,0,0,1-4.248,2.279,4.97,4.97,0,0,1-4.231-2.137,10.678,10.678,0,0,1-1.951-6.784c0-10.5,4.267-10.5,6.09-10.5,2.068,0,6.368,0,6.368,9.849a11.939,11.939,0,0,1-2.029,7.291m-4.339-20.371q-9.32,0-9.321,13.729a13.871,13.871,0,0,0,2.629,8.766,8.207,8.207,0,0,0,6.784,3.386,8.2,8.2,0,0,0,6.832-3.572,14.973,14.973,0,0,0,2.679-9.229q0-13.079-9.6-13.08" transform="translate(-797.148 -158.004)" fill="#7f7f7f"/><path d="M1239.99-251.822a4.968,4.968,0,0,1-4.247,2.279,4.971,4.971,0,0,1-4.231-2.137,10.679,10.679,0,0,1-1.951-6.784c0-10.5,4.269-10.5,6.091-10.5,2.067,0,6.37,0,6.37,9.849a11.934,11.934,0,0,1-2.032,7.291m-4.338-20.371q-9.321,0-9.322,13.729a13.872,13.872,0,0,0,2.629,8.766,8.212,8.212,0,0,0,6.785,3.386,8.194,8.194,0,0,0,6.831-3.572,14.972,14.972,0,0,0,2.678-9.229q0-13.079-9.6-13.08" transform="translate(-951.931 -158.004)" fill="#7f7f7f"/><path d="M450.027-295.882q-2.783-1.3-12.8-3.526-6.865-1.391-6.864-3.9a3.432,3.432,0,0,1,1.994-3.014,9.132,9.132,0,0,1,4.684-1.088c4.453,0,6.957,1.9,7.514,5.639h11.038a13.428,13.428,0,0,0-1.623-5.87,14.568,14.568,0,0,0-3.8-4.536,17.583,17.583,0,0,0-5.612-2.893,23.122,23.122,0,0,0-6.957-1.029,24,24,0,0,0-8.024,1.2,16.686,16.686,0,0,0-5.612,3.2,13.007,13.007,0,0,0-3.34,4.59,13.514,13.514,0,0,0-1.113,5.379q0,6.866,6.771,10.018,2.69,1.3,12.616,3.618a15.33,15.33,0,0,1,5.1,1.855q1.67,1.113,1.67,2.226a3.671,3.671,0,0,1-2.273,3.2,11.086,11.086,0,0,1-5.426,1.252,10.2,10.2,0,0,1-6.216-1.591,5.428,5.428,0,0,1-2.319-4.559h-11.5a12.132,12.132,0,0,0,1.67,5.951,14.756,14.756,0,0,0,4.267,4.621,20.429,20.429,0,0,0,6.354,2.984,27.978,27.978,0,0,0,7.839,1.051q8.44,0,13.589-3.811t5.149-11.043q0-6.585-6.772-9.929" transform="translate(-324.416 -123.926)" fill="#fff"/><path d="M637.065-311.276a12.482,12.482,0,0,0-4.393-2.69,16.226,16.226,0,0,0-5.593-.928,16.687,16.687,0,0,0-8.406,1.9,12.822,12.822,0,0,0-5.259,5.427v-5.969H602.583v42.207h11.579v-24.365c0-6.493,2.8-9.74,8.616-9.74,2.658,0,4.447.573,5.53,1.717s1.542,3.355,1.542,6.632v25.756h11.205v-29.466a16.179,16.179,0,0,0-1.071-6.076,12.374,12.374,0,0,0-2.918-4.406" transform="translate(-467.751 -124.858)" fill="#fff"/><path d="M815.908-283.817a8.674,8.674,0,0,1-2.366,3.061,10.063,10.063,0,0,1-3.478,1.809,14.178,14.178,0,0,1-4.128.6q-5.01,0-5.009-4.731a4.984,4.984,0,0,1,2.041-4.221q2.039-1.531,7.792-2.644,4.175-.835,5.844-2.226.091.744.14,2.041t.046,2.041a9.841,9.841,0,0,1-.88,4.267m-6.169-31.075c-6.308,0-10.885,1.437-13.728,4.065s-4.453,6.259-4.825,11.115h10.669a7.407,7.407,0,0,1,2.365-4.714,7.384,7.384,0,0,1,4.963-1.778,10.141,10.141,0,0,1,4.916,1.177,3.861,3.861,0,0,1,2.227,3.6,3.143,3.143,0,0,1-1.9,2.868,15.892,15.892,0,0,1-5.24,1.481q-4.175.556-7.746,1.3a21.011,21.011,0,0,0-6.169,2.224,10.456,10.456,0,0,0-4.035,4.081,14.379,14.379,0,0,0-1.437,6.958,10.652,10.652,0,0,0,3.85,8.719q3.848,3.155,10.25,3.154a24.1,24.1,0,0,0,7.513-1.067,12.575,12.575,0,0,0,5.287-3.2,15.759,15.759,0,0,0,.279,1.932c.124.556.246.906.371,1.654h10.491V-298.2c0-5.441-1.552-9.584-4.55-12.43s-7.55-4.267-13.548-4.267" transform="translate(-613.074 -124.86)" fill="#fff"/><path d="M1005.324-332.734a8.2,8.2,0,0,1-6.831,3.572,8.208,8.208,0,0,1-6.784-3.387,13.884,13.884,0,0,1-2.629-8.766q0-13.728,9.322-13.729,9.6,0,9.6,13.079a14.972,14.972,0,0,1-2.679,9.23m9.371-25.742a15.39,15.39,0,0,0-5.455-4.379,15.831,15.831,0,0,0-7.214-1.5h-.092a14.631,14.631,0,0,0-12.3,6.35h-.26v-20.916H978.169v57.894h11.094l.094-5.271c2.589,4.33,6.5,6.455,11.745,6.455a16.868,16.868,0,0,0,7.3-1.6,16.537,16.537,0,0,0,5.735-4.509,21.8,21.8,0,0,0,3.79-7.194,30.772,30.772,0,0,0,1.387-9.557,30.956,30.956,0,0,0-1.2-8.86,21.017,21.017,0,0,0-3.422-6.913" transform="translate(-759.298 -75.154)" fill="#fff"/><path d="M1205.431-332.734a8.194,8.194,0,0,1-6.831,3.572,8.212,8.212,0,0,1-6.784-3.387,13.885,13.885,0,0,1-2.629-8.766q0-13.728,9.322-13.729,9.6,0,9.6,13.079a14.974,14.974,0,0,1-2.678,9.23m9.371-25.742a15.391,15.391,0,0,0-5.455-4.379,15.829,15.829,0,0,0-7.214-1.5h-.092a14.632,14.632,0,0,0-12.3,6.35h-.056v-20.916H1178.48v57.894h10.89l.094-5.271c2.589,4.33,6.5,6.455,11.745,6.455a16.871,16.871,0,0,0,7.3-1.6,16.541,16.541,0,0,0,5.735-4.509,21.8,21.8,0,0,0,3.792-7.194,30.833,30.833,0,0,0,1.388-9.557,30.946,30.946,0,0,0-1.2-8.86,21,21,0,0,0-3.421-6.913" transform="translate(-914.788 -75.154)" fill="#fff"/><path d="M301.628-470.14H318.81a2.8,2.8,0,0,0,2.8-2.8,2.8,2.8,0,0,0-2.8-2.8H301.628a2.8,2.8,0,0,0-2.8,2.8,2.8,2.8,0,0,0,2.8,2.8" transform="translate(-231.963)" fill="#ccc"/><path d="M267.435-25.039H249.88a2.8,2.8,0,0,0-2.8,2.8,2.8,2.8,0,0,0,2.8,2.8h17.555a2.8,2.8,0,0,0,2.8-2.8,2.8,2.8,0,0,0-2.8-2.8" transform="translate(-191.794 -349.856)" fill="#ccc"/><path d="M377.5-425.665H348.367a2.8,2.8,0,0,0-2.8,2.8,2.8,2.8,0,0,0,2.8,2.8H377.5a2.8,2.8,0,0,0,2.8-2.8,2.8,2.8,0,0,0-2.8-2.8" transform="translate(-268.244 -38.873)" fill="#ccc"/><path d="M372.821-375.586H350.037a2.8,2.8,0,0,0-2.8,2.8,2.8,2.8,0,0,0,2.8,2.8h22.784a2.8,2.8,0,0,0,2.8-2.8,2.8,2.8,0,0,0-2.8-2.8" transform="translate(-269.54 -77.746)" fill="#ccc"/><path d="M299.373-75.117H276.589a2.8,2.8,0,0,0-2.8,2.8,2.8,2.8,0,0,0,2.8,2.8h22.784a2.8,2.8,0,0,0,2.8-2.8,2.8,2.8,0,0,0-2.8-2.8" transform="translate(-212.526 -310.983)" fill="#ccc"/><path d="M616.459-343.518a21.791,21.791,0,0,1-3.792,7.189,16.5,16.5,0,0,1-5.735,4.5,16.859,16.859,0,0,1-7.3,1.577c-5.243,0-9.156-2.086-11.745-6.416l-.094,5.271H576.9v-57.894H588.1v20.916h.056a14.634,14.634,0,0,1,12.3-6.35h.092a15.824,15.824,0,0,1,7.214,1.5,15.544,15.544,0,0,1,5.455,4.439,20.846,20.846,0,0,1,3.421,6.882,30.838,30.838,0,0,1,1.2,8.843,30.727,30.727,0,0,1-1.387,9.54m-44.619,0a21.782,21.782,0,0,1-3.79,7.189,16.5,16.5,0,0,1-5.735,4.5,16.86,16.86,0,0,1-7.3,1.577c-5.243,0-9.156-2.086-11.745-6.416l-.094,5.271H532.078v-57.894h11.206v20.916h.26a14.631,14.631,0,0,1,12.3-6.35h.092a15.824,15.824,0,0,1,7.214,1.5,15.542,15.542,0,0,1,5.455,4.439,20.85,20.85,0,0,1,3.421,6.882,30.841,30.841,0,0,1,1.2,8.843,30.664,30.664,0,0,1-1.387,9.54m-66.619-16.3a3.713,3.713,0,0,1,1.24-2.358,4.135,4.135,0,0,1,2.855-.934,6.913,6.913,0,0,1,3.378.817c.478.259.528.424.533.682a1.709,1.709,0,0,1-.2.121,12.593,12.593,0,0,1-4.15,1.13q-1.879.251-3.659.542M527.969-331.4H517.478c-.125-.747-.247-1.1-.371-1.654a15.1,15.1,0,0,1-.279-1.894,12.547,12.547,0,0,1-5.288,3.182,24.119,24.119,0,0,1-7.513,1.057q-6.4,0-10.25-3.159a10.659,10.659,0,0,1-3.85-8.722,14.374,14.374,0,0,1,1.438-6.958,10.454,10.454,0,0,1,4.035-4.082,21.014,21.014,0,0,1,6.169-2.226q3.57-.742,7.746-1.3a15.859,15.859,0,0,0,5.241-1.484,3.153,3.153,0,0,0,1.9-2.875,3.884,3.884,0,0,0-2.227-3.617,10.163,10.163,0,0,0-4.917-1.206,7.428,7.428,0,0,0-4.963,1.838,7.409,7.409,0,0,0-2.365,4.714H491.319c.371-4.855,1.979-8.486,4.824-11.115s7.421-4,13.729-4c6,0,10.547,1.394,13.547,4.237s4.55,6.958,4.55,12.4Zm-38.1-25.82c.373.272.884.795,1.448.795h3.147a1.077,1.077,0,0,0-.6.176c-1.609.92-3.251,1.916-4,3.338ZM486.51-331.4H475.3v-25.756c0-3.277-.512-5.487-1.594-6.632s-2.834-1.716-5.493-1.716c-5.813,0-8.6,3.246-8.6,9.74V-331.4H448.038V-373.6H458.87v5.968a12.821,12.821,0,0,1,5.26-5.427,16.609,16.609,0,0,1,8.386-1.9,16.286,16.286,0,0,1,5.6.928,12.512,12.512,0,0,1,4.4,2.69,12.4,12.4,0,0,1,2.921,4.406,16.19,16.19,0,0,1,1.073,6.076Zm-56.419-29.53c-1.018-.24-2.139-.5-3.374-.771l-.059-.013a18.459,18.459,0,0,1-3.688-1.059,6.11,6.11,0,0,1,2.861-.612c3.5,0,4.061,1.366,4.26,2.456m-8.653,15.495c1.522.4,3.339.845,5.514,1.352l.05.012a13.985,13.985,0,0,1,3.736,1.229c-.035.021-.073.043-.113.065a7.981,7.981,0,0,1-3.866.851,7.177,7.177,0,0,1-4.291-1.081,2.315,2.315,0,0,1-1.012-2.089,3.256,3.256,0,0,0-.017-.338m19,11.378q-5.148,3.8-13.589,3.8a27.937,27.937,0,0,1-7.838-1.067,20.45,20.45,0,0,1-6.354-3.015,14.571,14.571,0,0,1-4.267-4.559,12.131,12.131,0,0,1-1.67-5.951h11.5a5.428,5.428,0,0,0,2.319,4.559,10.2,10.2,0,0,0,6.215,1.654,11.094,11.094,0,0,0,5.426-1.283,3.692,3.692,0,0,0,2.273-3.216c0-.743-.557-1.491-1.67-2.234a15.349,15.349,0,0,0-5.1-1.858q-9.926-2.318-12.616-3.62Q408.3-354,408.3-360.864a13.523,13.523,0,0,1,1.113-5.38,13.013,13.013,0,0,1,3.339-4.592,16.687,16.687,0,0,1,5.612-3.2,23.967,23.967,0,0,1,8.024-1.207,23.123,23.123,0,0,1,6.957,1.021,17.536,17.536,0,0,1,5.612,2.875,14.705,14.705,0,0,1,3.8,4.572,13.43,13.43,0,0,1,1.623,5.87H433.344c-.557-3.735-3.061-5.638-7.514-5.638a9.144,9.144,0,0,0-4.684,1.123,3.41,3.41,0,0,0-1.995,3c0,1.67,2.287,2.959,6.864,3.887q10.019,2.227,12.8,3.521,6.771,3.338,6.772,9.922,0,7.237-5.149,11.037m4.61-23.832v3.357c-1.121-1.192-2.674-1.893-4.6-3.013h3.936a1.3,1.3,0,0,0,.668-.344m174.689-4.966a24.314,24.314,0,0,0-3.958-7.961,18.874,18.874,0,0,0-6.565-5.36,19.127,19.127,0,0,0-8.664-1.912h-.092c-3.434,0-6.753.7-8.995,2.315V-389.25a3.212,3.212,0,0,0-3.4-3.03H576.937a2.9,2.9,0,0,0-3.025,3.03v22.661c-1.121-1.544-1.671-2.961-2.645-4.226a19.036,19.036,0,0,0-6.619-5.36,19.33,19.33,0,0,0-8.713-1.912h-.092a17.33,17.33,0,0,0-9.2,2.315V-389.25a3.034,3.034,0,0,0-3.193-3.03H532.32a3.065,3.065,0,0,0-3.23,3.03V-368.2a14.244,14.244,0,0,0-3.5-4.844c-3.609-3.421-8.9-5.154-15.722-5.154-7.218,0-12.426,1.57-15.922,4.8a17.553,17.553,0,0,0-4.782,7.584,16.906,16.906,0,0,0-.738-2.336,15.635,15.635,0,0,0-3.68-5.538,15.755,15.755,0,0,0-5.514-3.387,19.534,19.534,0,0,0-6.7-1.123,19.753,19.753,0,0,0-9.987,2.336c-.259.15-.512.365-.761.527a3.18,3.18,0,0,0-2.842-1.634H448.278a3.131,3.131,0,0,0-3.228,3.115v4.523a18.237,18.237,0,0,0-4.1-4.56,20.849,20.849,0,0,0-6.638-3.416,26.451,26.451,0,0,0-7.928-1.169,27.276,27.276,0,0,0-9.108,1.393,19.963,19.963,0,0,0-6.684,3.838,16.282,16.282,0,0,0-4.155,5.725,17.1,17.1,0,0,0-1.375,6.714,13.536,13.536,0,0,0,7.81,12.6h-6.155a3.177,3.177,0,0,0-2.315.918,3.165,3.165,0,0,0-.915,2.311,15.852,15.852,0,0,0,2.1,7.588,18.214,18.214,0,0,0,5.172,5.679,23.753,23.753,0,0,0,7.346,3.5,31.3,31.3,0,0,0,8.74,1.194c6.307,0,11.526-1.493,15.511-4.436a15.06,15.06,0,0,0,2.688-2.493v2.4a3.484,3.484,0,0,0,3.228,3.516H459.41a3.456,3.456,0,0,0,3.2-3.516v-24.211c0-5.42,2.117-6.509,5.506-6.509,2.471,0,3.068.589,3.181.707,0,0,.651.824.651,4.41v25.6a3.653,3.653,0,0,0,3.422,3.516H486.5a3.611,3.611,0,0,0,3.375-3.516v-1.829a7.509,7.509,0,0,0,1.931,2.01c3.144,2.578,7.246,3.886,12.261,3.886a27.32,27.32,0,0,0,8.5-1.228,17.968,17.968,0,0,0,2.308-.794,3.355,3.355,0,0,0,2.6,1.47h10.39a3.215,3.215,0,0,0,2.226-.893,3.221,3.221,0,0,0,2.227.893h10.852a3.357,3.357,0,0,0,2.553-1.394,16.866,16.866,0,0,0,9.286,2.479,20.171,20.171,0,0,0,8.686-1.922,20.207,20.207,0,0,0,6.95-5.384,38.749,38.749,0,0,0,3.265-5.159v7.865a3.32,3.32,0,0,0,3.025,3.516h10.852a3.365,3.365,0,0,0,2.555-1.394,16.853,16.853,0,0,0,9.284,2.479,20.171,20.171,0,0,0,8.686-1.922,19.826,19.826,0,0,0,6.847-5.384,25.077,25.077,0,0,0,4.37-8.253,34.207,34.207,0,0,0,1.546-10.558,34.371,34.371,0,0,0-1.338-9.785" transform="translate(-313.207 -64.788)" fill="#595959"/><path d="M851.606-206.362a5.432,5.432,0,0,1-1.484,1.939,6.821,6.821,0,0,1-2.375,1.224,11.015,11.015,0,0,1-3.194.465,2.64,2.64,0,0,1-1.538-.3,1.979,1.979,0,0,1-.24-1.2,1.782,1.782,0,0,1,.748-1.636c.436-.327,1.935-1.179,6.467-2.056l.021,0q1.138-.228,2.128-.5a6.106,6.106,0,0,1-.532,2.067m3.614-6.963q-1.67,1.392-5.844,2.226-5.752,1.114-7.792,2.644a4.985,4.985,0,0,0-2.041,4.221q0,4.731,5.009,4.731a14.178,14.178,0,0,0,4.128-.6,10.056,10.056,0,0,0,3.478-1.809,8.666,8.666,0,0,0,2.366-3.061,9.834,9.834,0,0,0,.881-4.267q0-.741-.046-2.041t-.14-2.041" transform="translate(-651.691 -203.7)" fill="#595959"/><path d="M1040.591-251.822a4.972,4.972,0,0,1-4.248,2.279,4.97,4.97,0,0,1-4.231-2.137,10.678,10.678,0,0,1-1.951-6.784c0-10.5,4.267-10.5,6.09-10.5,2.068,0,6.368,0,6.368,9.849a11.939,11.939,0,0,1-2.029,7.291m-4.339-20.371q-9.32,0-9.321,13.729a13.871,13.871,0,0,0,2.629,8.766,8.207,8.207,0,0,0,6.784,3.386,8.2,8.2,0,0,0,6.832-3.572,14.973,14.973,0,0,0,2.679-9.229q0-13.079-9.6-13.08" transform="translate(-797.148 -158.004)" fill="#595959"/><path d="M1239.99-251.822a4.968,4.968,0,0,1-4.247,2.279,4.971,4.971,0,0,1-4.231-2.137,10.679,10.679,0,0,1-1.951-6.784c0-10.5,4.269-10.5,6.091-10.5,2.067,0,6.37,0,6.37,9.849a11.934,11.934,0,0,1-2.032,7.291m-4.338-20.371q-9.321,0-9.322,13.729a13.872,13.872,0,0,0,2.629,8.766,8.212,8.212,0,0,0,6.785,3.386,8.194,8.194,0,0,0,6.831-3.572,14.972,14.972,0,0,0,2.678-9.229q0-13.079-9.6-13.08" transform="translate(-951.931 -158.004)" fill="#595959"/><path d="M450.027-295.882q-2.783-1.3-12.8-3.526-6.865-1.391-6.864-3.9a3.432,3.432,0,0,1,1.994-3.014,9.132,9.132,0,0,1,4.684-1.088c4.453,0,6.957,1.9,7.514,5.639h11.038a13.428,13.428,0,0,0-1.623-5.87,14.568,14.568,0,0,0-3.8-4.536,17.583,17.583,0,0,0-5.612-2.893,23.122,23.122,0,0,0-6.957-1.029,24,24,0,0,0-8.024,1.2,16.686,16.686,0,0,0-5.612,3.2,13.007,13.007,0,0,0-3.34,4.59,13.514,13.514,0,0,0-1.113,5.379q0,6.866,6.771,10.018,2.69,1.3,12.616,3.618a15.33,15.33,0,0,1,5.1,1.855q1.67,1.113,1.67,2.226a3.671,3.671,0,0,1-2.273,3.2,11.086,11.086,0,0,1-5.426,1.252,10.2,10.2,0,0,1-6.216-1.591,5.428,5.428,0,0,1-2.319-4.559h-11.5a12.132,12.132,0,0,0,1.67,5.951,14.756,14.756,0,0,0,4.267,4.621,20.429,20.429,0,0,0,6.354,2.984,27.978,27.978,0,0,0,7.839,1.051q8.44,0,13.589-3.811t5.149-11.043q0-6.585-6.772-9.929" transform="translate(-324.416 -123.926)" fill="#fff"/><path d="M637.065-311.276a12.482,12.482,0,0,0-4.393-2.69,16.226,16.226,0,0,0-5.593-.928,16.687,16.687,0,0,0-8.406,1.9,12.822,12.822,0,0,0-5.259,5.427v-5.969H602.583v42.207h11.579v-24.365c0-6.493,2.8-9.74,8.616-9.74,2.658,0,4.447.573,5.53,1.717s1.542,3.355,1.542,6.632v25.756h11.205v-29.466a16.179,16.179,0,0,0-1.071-6.076,12.374,12.374,0,0,0-2.918-4.406" transform="translate(-467.751 -124.858)" fill="#fff"/><path d="M815.908-283.817a8.674,8.674,0,0,1-2.366,3.061,10.063,10.063,0,0,1-3.478,1.809,14.178,14.178,0,0,1-4.128.6q-5.01,0-5.009-4.731a4.984,4.984,0,0,1,2.041-4.221q2.039-1.531,7.792-2.644,4.175-.835,5.844-2.226.091.744.14,2.041t.046,2.041a9.841,9.841,0,0,1-.88,4.267m-6.169-31.075c-6.308,0-10.885,1.437-13.728,4.065s-4.453,6.259-4.825,11.115h10.669a7.407,7.407,0,0,1,2.365-4.714,7.384,7.384,0,0,1,4.963-1.778,10.141,10.141,0,0,1,4.916,1.177,3.861,3.861,0,0,1,2.227,3.6,3.143,3.143,0,0,1-1.9,2.868,15.892,15.892,0,0,1-5.24,1.481q-4.175.556-7.746,1.3a21.011,21.011,0,0,0-6.169,2.224,10.456,10.456,0,0,0-4.035,4.081,14.379,14.379,0,0,0-1.437,6.958,10.652,10.652,0,0,0,3.85,8.719q3.848,3.155,10.25,3.154a24.1,24.1,0,0,0,7.513-1.067,12.575,12.575,0,0,0,5.287-3.2,15.759,15.759,0,0,0,.279,1.932c.124.556.246.906.371,1.654h10.491V-298.2c0-5.441-1.552-9.584-4.55-12.43s-7.55-4.267-13.548-4.267" transform="translate(-613.074 -124.86)" fill="#fff"/><path d="M1005.324-332.734a8.2,8.2,0,0,1-6.831,3.572,8.208,8.208,0,0,1-6.784-3.387,13.884,13.884,0,0,1-2.629-8.766q0-13.728,9.322-13.729,9.6,0,9.6,13.079a14.972,14.972,0,0,1-2.679,9.23m9.371-25.742a15.39,15.39,0,0,0-5.455-4.379,15.831,15.831,0,0,0-7.214-1.5h-.092a14.631,14.631,0,0,0-12.3,6.35h-.26v-20.916H978.169v57.894h11.094l.094-5.271c2.589,4.33,6.5,6.455,11.745,6.455a16.868,16.868,0,0,0,7.3-1.6,16.537,16.537,0,0,0,5.735-4.509,21.8,21.8,0,0,0,3.79-7.194,30.772,30.772,0,0,0,1.387-9.557,30.956,30.956,0,0,0-1.2-8.86,21.017,21.017,0,0,0-3.422-6.913" transform="translate(-759.298 -75.154)" fill="#fff"/><path d="M1205.431-332.734a8.194,8.194,0,0,1-6.831,3.572,8.212,8.212,0,0,1-6.784-3.387,13.885,13.885,0,0,1-2.629-8.766q0-13.728,9.322-13.729,9.6,0,9.6,13.079a14.974,14.974,0,0,1-2.678,9.23m9.371-25.742a15.391,15.391,0,0,0-5.455-4.379,15.829,15.829,0,0,0-7.214-1.5h-.092a14.632,14.632,0,0,0-12.3,6.35h-.056v-20.916H1178.48v57.894h10.89l.094-5.271c2.589,4.33,6.5,6.455,11.745,6.455a16.871,16.871,0,0,0,7.3-1.6,16.541,16.541,0,0,0,5.735-4.509,21.8,21.8,0,0,0,3.792-7.194,30.833,30.833,0,0,0,1.388-9.557,30.946,30.946,0,0,0-1.2-8.86,21,21,0,0,0-3.421-6.913" transform="translate(-914.788 -75.154)" fill="#fff"/><path d="M1382.181-167.081h1.41c.722,0,1.506.141,1.506,1.05,0,1.082-.861,1.129-1.8,1.129h-1.112Zm-1.063,5.985h1.063v-2.947h1.128l1.866,2.947h1.142l-1.956-3.025a1.758,1.758,0,0,0,1.8-1.863c0-1.316-.765-1.957-2.4-1.957h-2.645Zm-2.555-3.447a4.816,4.816,0,0,1,4.839-4.967,4.819,4.819,0,0,1,4.811,4.967,4.835,4.835,0,0,1-4.811,5.029A4.831,4.831,0,0,1,1378.563-164.542Zm-1.062,0a5.852,5.852,0,0,0,5.9,5.888,5.838,5.838,0,0,0,5.874-5.888,5.825,5.825,0,0,0-5.874-5.826A5.84,5.84,0,0,0,1377.5-164.542Z" transform="translate(-1069.276 -237.045)" fill="#595959"/><path d="M70.386-407.659a2.8,2.8,0,0,1-2.069-3.01l-.926-.247A32.774,32.774,0,0,1,56.355-396.4l-9.008,18.1c-1.965,3.843-6.18,6.262-9.414,5.4l-27.72-7.38c-3.234-.861-5.667-5.049-5.435-9.354q.649-9.978,1.3-19.957a32.591,32.591,0,0,1-1.625-21.664A32.776,32.776,0,0,1,16.8-449.239l8.844-17.773c1.965-3.844,6.18-6.262,9.414-5.4l27.719,7.38c3.234.862,5.668,5.049,5.436,9.354q-.649,9.988-1.3,19.978A32.572,32.572,0,0,1,69.2-417.639l.908.242a2.821,2.821,0,0,1,3.373-1.738,2.8,2.8,0,0,1,1.993,3.429l-1.636,6.065a2.82,2.82,0,0,1-3.452,1.98m7.563-11.821a6.02,6.02,0,0,0-3.684-2.805,6.226,6.226,0,0,0-1.37-.205,35.1,35.1,0,0,0-.291-4.864,35.914,35.914,0,0,0-2.346-8.86l.173-2.657c.141-2.179.208-4.356.349-6.533.2-3.137.649-10.022.649-10.022a14.009,14.009,0,0,0-1.834-7.756,10.1,10.1,0,0,0-6.02-4.861l-27.71-7.38a8.915,8.915,0,0,0-2.3-.3,10.911,10.911,0,0,0-5.356,1.494A14.117,14.117,0,0,0,22.71-468.5l-.013.018-.03.058q-2.159,4.34-4.316,8.668-2.088,4.191-4.174,8.381a36.2,36.2,0,0,0-7.711,8.059,35.964,35.964,0,0,0-5.217,11.22,35.867,35.867,0,0,0-1.131,12.28,35.9,35.9,0,0,0,2.6,10.793c-.2,3.071-.309,6.151-.511,9.23-.217,3.321-.711,10.067-.711,10.067-.32,5.91,3.11,11.527,7.839,12.786l27.708,7.379a8.392,8.392,0,0,0,2.171.279c4.274,0,8.821-3.062,11.063-7.448l.019-.039.015-.041.005-.016q2.288-4.6,4.576-9.195,1.422-2.853,2.843-5.71l1.226-2.464a35.924,35.924,0,0,0,9.268-10.744,5.561,5.561,0,0,0,1.2.474,6,6,0,0,0,1.545.2,6.139,6.139,0,0,0,5.888-4.572L78.5-414.9a5.963,5.963,0,0,0-.556-4.583" transform="translate(0 -0.017)" fill="#fff"/><path d="M138.61-416.677a33.021,33.021,0,0,1,15.62,9.3q.237-3.645.473-7.289c.169-3.129-1.6-6.172-3.95-6.8l-20.143-5.362c-2.35-.626-5.413,1.131-6.841,3.925l-3.221,6.474a33.188,33.188,0,0,1,18.061-.253" transform="translate(-93.575 -37.876)" fill="#fff"/><path d="M69-128.742a33.021,33.021,0,0,1-15.538-9.218q-.239,3.679-.478,7.356c-.168,3.128,1.6,6.172,3.95,6.8l20.143,5.362c2.351.626,5.413-1.131,6.841-3.924l3.325-6.683A33.188,33.188,0,0,1,69-128.742" transform="translate(-41.123 -262.203)" fill="#fff"/><path d="M85.623-320.191l-10.064-2.68-2.7,10-10.724-2.855,2.7-10-9.9-2.635,2.874-10.657,9.9,2.635,2.653-9.836,10.725,2.856-2.653,9.836,10.065,2.68Zm-7.16-34.654a26.324,26.324,0,0,0-32.218,18.482,26.121,26.121,0,0,0,18.6,32.011,26.324,26.324,0,0,0,32.218-18.481,26.12,26.12,0,0,0-18.6-32.011" transform="translate(-35.197 -93.15)" fill="#fff"/><path d="M48.524-453.8l20.143,5.362c2.351.626,4.12,3.669,3.95,6.8q-.236,3.645-.473,7.29a33.024,33.024,0,0,0-15.62-9.3,33.189,33.189,0,0,0-18.061.253l3.221-6.474c1.428-2.793,4.491-4.55,6.841-3.924m-1.078,84.053L27.3-375.114c-2.351-.626-4.118-3.669-3.95-6.8q.24-3.678.478-7.356a33.024,33.024,0,0,0,15.538,9.217,33.19,33.19,0,0,0,18.244-.308l-3.325,6.683c-1.428,2.793-4.491,4.55-6.841,3.924m-6.308-16.857a26.121,26.121,0,0,1-18.6-32.011A26.325,26.325,0,0,1,54.755-437.1a26.12,26.12,0,0,1,18.6,32.011,26.323,26.323,0,0,1-32.218,18.482m45.824-18.219a2.8,2.8,0,0,0-1.993-3.429A2.821,2.821,0,0,0,81.6-406.52l-.908-.242a32.575,32.575,0,0,0-2.281-18.062q.649-9.989,1.3-19.977c.233-4.305-2.2-8.493-5.436-9.354l-27.719-7.38c-3.234-.861-7.45,1.556-9.415,5.4q-4.421,8.886-8.844,17.772a32.774,32.774,0,0,0-12.353,17.985,32.588,32.588,0,0,0,1.626,21.663q-.647,9.978-1.3,19.957c-.232,4.305,2.2,8.493,5.436,9.354l27.719,7.38c3.235.861,7.45-1.557,9.414-5.4l9.008-18.1A32.775,32.775,0,0,0,78.879-400.04l.926.247a2.8,2.8,0,0,0,2.069,3.01,2.82,2.82,0,0,0,3.452-1.981Z" transform="translate(-11.489 -10.894)" fill="#00cdc4"/><path d="M114.36-310.322l-10.725-2.855-2.652,9.836-9.9-2.636L88.209-295.32l9.9,2.635-2.7,10,10.725,2.855,2.7-10,10.065,2.68,2.874-10.657-10.065-2.679Z" transform="translate(-68.472 -126.191)" fill="#ff99b1"/><path d="M301.628-470.14H318.81a2.8,2.8,0,0,0,2.8-2.8,2.8,2.8,0,0,0-2.8-2.8H301.628a2.8,2.8,0,0,0-2.8,2.8,2.8,2.8,0,0,0,2.8,2.8" transform="translate(-231.963)" fill="#ccc"/><path d="M267.435-25.039H249.88a2.8,2.8,0,0,0-2.8,2.8,2.8,2.8,0,0,0,2.8,2.8h17.555a2.8,2.8,0,0,0,2.8-2.8,2.8,2.8,0,0,0-2.8-2.8" transform="translate(-191.794 -349.856)" fill="#ccc"/><path d="M377.5-425.665H348.367a2.8,2.8,0,0,0-2.8,2.8,2.8,2.8,0,0,0,2.8,2.8H377.5a2.8,2.8,0,0,0,2.8-2.8,2.8,2.8,0,0,0-2.8-2.8" transform="translate(-268.244 -38.873)" fill="#ccc"/><path d="M372.821-375.586H350.037a2.8,2.8,0,0,0-2.8,2.8,2.8,2.8,0,0,0,2.8,2.8h22.784a2.8,2.8,0,0,0,2.8-2.8,2.8,2.8,0,0,0-2.8-2.8" transform="translate(-269.54 -77.746)" fill="#ccc"/><path d="M299.373-75.117H276.589a2.8,2.8,0,0,0-2.8,2.8,2.8,2.8,0,0,0,2.8,2.8h22.784a2.8,2.8,0,0,0,2.8-2.8,2.8,2.8,0,0,0-2.8-2.8" transform="translate(-212.526 -310.983)" fill="#ccc"/><path d="M70.386-407.659a2.8,2.8,0,0,1-2.069-3.01l-.926-.247A32.774,32.774,0,0,1,56.355-396.4l-9.008,18.1c-1.965,3.843-6.18,6.262-9.414,5.4l-27.72-7.38c-3.234-.861-5.667-5.049-5.435-9.354q.649-9.978,1.3-19.957a32.591,32.591,0,0,1-1.625-21.664A32.776,32.776,0,0,1,16.8-449.239l8.844-17.773c1.965-3.844,6.18-6.262,9.414-5.4l27.719,7.38c3.234.862,5.668,5.049,5.436,9.354q-.649,9.988-1.3,19.978A32.572,32.572,0,0,1,69.2-417.639l.908.242a2.821,2.821,0,0,1,3.373-1.738,2.8,2.8,0,0,1,1.993,3.429l-1.636,6.065a2.82,2.82,0,0,1-3.452,1.98m7.563-11.821a6.02,6.02,0,0,0-3.684-2.805,6.226,6.226,0,0,0-1.37-.205,35.1,35.1,0,0,0-.291-4.864,35.914,35.914,0,0,0-2.346-8.86l.173-2.657c.141-2.179.208-4.356.349-6.533.2-3.137.649-10.022.649-10.022a14.009,14.009,0,0,0-1.834-7.756,10.1,10.1,0,0,0-6.02-4.861l-27.71-7.38a8.915,8.915,0,0,0-2.3-.3,10.911,10.911,0,0,0-5.356,1.494A14.117,14.117,0,0,0,22.71-468.5l-.013.018-.03.058q-2.159,4.34-4.316,8.668-2.088,4.191-4.174,8.381a36.2,36.2,0,0,0-7.711,8.059,35.964,35.964,0,0,0-5.217,11.22,35.867,35.867,0,0,0-1.131,12.28,35.9,35.9,0,0,0,2.6,10.793c-.2,3.071-.309,6.151-.511,9.23-.217,3.321-.711,10.067-.711,10.067-.32,5.91,3.11,11.527,7.839,12.786l27.708,7.379a8.392,8.392,0,0,0,2.171.279c4.274,0,8.821-3.062,11.063-7.448l.019-.039.015-.041.005-.016q2.288-4.6,4.576-9.195,1.422-2.853,2.843-5.71l1.226-2.464a35.924,35.924,0,0,0,9.268-10.744,5.561,5.561,0,0,0,1.2.474,6,6,0,0,0,1.545.2,6.139,6.139,0,0,0,5.888-4.572L78.5-414.9a5.963,5.963,0,0,0-.556-4.583" transform="translate(0 -0.017)" fill="#fff"/><path d="M48.524-453.8l20.143,5.362c2.351.626,4.12,3.669,3.95,6.8q-.236,3.645-.473,7.29a33.024,33.024,0,0,0-15.62-9.3,33.189,33.189,0,0,0-18.061.253l3.221-6.474c1.428-2.793,4.491-4.55,6.841-3.924m-1.078,84.053L27.3-375.114c-2.351-.626-4.118-3.669-3.95-6.8q.24-3.678.478-7.356a33.024,33.024,0,0,0,15.538,9.217,33.19,33.19,0,0,0,18.244-.308l-3.325,6.683c-1.428,2.793-4.491,4.55-6.841,3.924m-6.308-16.857a26.121,26.121,0,0,1-18.6-32.011A26.325,26.325,0,0,1,54.755-437.1a26.12,26.12,0,0,1,18.6,32.011,26.323,26.323,0,0,1-32.218,18.482m45.824-18.219a2.8,2.8,0,0,0-1.993-3.429A2.821,2.821,0,0,0,81.6-406.52l-.908-.242a32.575,32.575,0,0,0-2.281-18.062q.649-9.989,1.3-19.977c.233-4.305-2.2-8.493-5.436-9.354l-27.719-7.38c-3.234-.861-7.45,1.556-9.415,5.4q-4.421,8.886-8.844,17.772a32.774,32.774,0,0,0-12.353,17.985,32.588,32.588,0,0,0,1.626,21.663q-.647,9.978-1.3,19.957c-.232,4.305,2.2,8.493,5.436,9.354l27.719,7.38c3.235.861,7.45-1.557,9.414-5.4l9.008-18.1A32.775,32.775,0,0,0,78.879-400.04l.926.247a2.8,2.8,0,0,0,2.069,3.01,2.82,2.82,0,0,0,3.452-1.981Z" transform="translate(-11.489 -10.894)" fill="#00cdc4"/><path d="M114.36-310.322l-10.725-2.855-2.652,9.836-9.9-2.636L88.209-295.32l9.9,2.635-2.7,10,10.725,2.855,2.7-10,10.065,2.68,2.874-10.657-10.065-2.679Z" transform="translate(-68.472 -126.191)" fill="#ff99b1"/><path d="M301.628-470.14H318.81a2.8,2.8,0,0,0,2.8-2.8,2.8,2.8,0,0,0-2.8-2.8H301.628a2.8,2.8,0,0,0-2.8,2.8,2.8,2.8,0,0,0,2.8,2.8" transform="translate(-231.963)" fill="#ccc"/><path d="M267.435-25.039H249.88a2.8,2.8,0,0,0-2.8,2.8,2.8,2.8,0,0,0,2.8,2.8h17.555a2.8,2.8,0,0,0,2.8-2.8,2.8,2.8,0,0,0-2.8-2.8" transform="translate(-191.794 -349.856)" fill="#ccc"/><path d="M377.5-425.665H348.367a2.8,2.8,0,0,0-2.8,2.8,2.8,2.8,0,0,0,2.8,2.8H377.5a2.8,2.8,0,0,0,2.8-2.8,2.8,2.8,0,0,0-2.8-2.8" transform="translate(-268.244 -38.873)" fill="#ccc"/><path d="M372.821-375.586H350.037a2.8,2.8,0,0,0-2.8,2.8,2.8,2.8,0,0,0,2.8,2.8h22.784a2.8,2.8,0,0,0,2.8-2.8,2.8,2.8,0,0,0-2.8-2.8" transform="translate(-269.54 -77.746)" fill="#ccc"/><path d="M299.373-75.117H276.589a2.8,2.8,0,0,0-2.8,2.8,2.8,2.8,0,0,0,2.8,2.8h22.784a2.8,2.8,0,0,0,2.8-2.8,2.8,2.8,0,0,0-2.8-2.8" transform="translate(-212.526 -310.983)" fill="#ccc"/><path d="M70.386-407.659a2.8,2.8,0,0,1-2.069-3.01l-.926-.247A32.774,32.774,0,0,1,56.355-396.4l-9.008,18.1c-1.965,3.843-6.18,6.262-9.414,5.4l-27.72-7.38c-3.234-.861-5.667-5.049-5.435-9.354q.649-9.978,1.3-19.957a32.591,32.591,0,0,1-1.625-21.664A32.776,32.776,0,0,1,16.8-449.239l8.844-17.773c1.965-3.844,6.18-6.262,9.414-5.4l27.719,7.38c3.234.862,5.668,5.049,5.436,9.354q-.649,9.988-1.3,19.978A32.572,32.572,0,0,1,69.2-417.639l.908.242a2.821,2.821,0,0,1,3.373-1.738,2.8,2.8,0,0,1,1.993,3.429l-1.636,6.065a2.82,2.82,0,0,1-3.452,1.98m7.563-11.821a6.02,6.02,0,0,0-3.684-2.805,6.226,6.226,0,0,0-1.37-.205,35.1,35.1,0,0,0-.291-4.864,35.914,35.914,0,0,0-2.346-8.86l.173-2.657c.141-2.179.208-4.356.349-6.533.2-3.137.649-10.022.649-10.022a14.009,14.009,0,0,0-1.834-7.756,10.1,10.1,0,0,0-6.02-4.861l-27.71-7.38a8.915,8.915,0,0,0-2.3-.3,10.911,10.911,0,0,0-5.356,1.494A14.117,14.117,0,0,0,22.71-468.5l-.013.018-.03.058q-2.159,4.34-4.316,8.668-2.088,4.191-4.174,8.381a36.2,36.2,0,0,0-7.711,8.059,35.964,35.964,0,0,0-5.217,11.22,35.867,35.867,0,0,0-1.131,12.28,35.9,35.9,0,0,0,2.6,10.793c-.2,3.071-.309,6.151-.511,9.23-.217,3.321-.711,10.067-.711,10.067-.32,5.91,3.11,11.527,7.839,12.786l27.708,7.379a8.392,8.392,0,0,0,2.171.279c4.274,0,8.821-3.062,11.063-7.448l.019-.039.015-.041.005-.016q2.288-4.6,4.576-9.195,1.422-2.853,2.843-5.71l1.226-2.464a35.924,35.924,0,0,0,9.268-10.744,5.561,5.561,0,0,0,1.2.474,6,6,0,0,0,1.545.2,6.139,6.139,0,0,0,5.888-4.572L78.5-414.9a5.963,5.963,0,0,0-.556-4.583" transform="translate(0 -0.017)" fill="#fff"/><path d="M114.36-310.322l-10.725-2.855-2.652,9.836-9.9-2.636L88.209-295.32l9.9,2.635-2.7,10,10.725,2.855,2.7-10,10.065,2.68,2.874-10.657-10.065-2.679Z" transform="translate(-68.472 -126.191)" fill="#ff99b1"/></g></svg>